<svg width="570" height="405" viewBox="0 0 570 405" fill="none" xmlns="http://www.w3.org/2000/svg">
<g clip-path="url(#clip0_501_4209)">
<circle opacity="0.2" cx="373.915" cy="259.909" r="114.065" transform="rotate(112 373.915 259.909)" stroke="url(#paint0_linear_501_4209)" stroke-width="1.09618"/>
<circle cx="373.915" cy="259.909" r="114.613" transform="rotate(112 373.915 259.909)" fill="url(#paint1_linear_501_4209)"/>
<path fill-rule="evenodd" clip-rule="evenodd" d="M259.286 261.713C259.045 246.826 261.719 231.647 267.647 216.974C270.611 209.638 274.249 202.776 278.459 196.43C307.138 153.207 362.412 133.943 412.683 152.05C412.857 152.113 413.031 152.176 413.205 152.24C414.226 152.613 415.245 153.002 416.261 153.406C416.457 153.484 416.654 153.563 416.85 153.642C475.54 177.354 503.895 244.154 480.182 302.844C470.26 327.402 452.794 346.649 431.534 358.992C401.986 376.147 365.112 379.967 330.98 366.177C286.962 348.393 260.008 306.372 259.286 261.713Z" fill="url(#paint2_linear_501_4209)"/>
<path d="M461.655 236.187C474.647 284.674 445.873 334.512 397.386 347.504C348.899 360.496 299.06 331.722 286.068 283.235C273.076 234.748 301.85 184.909 350.337 171.917C398.824 158.925 448.663 187.699 461.655 236.187Z" fill="#0E0E0E" stroke="url(#paint3_linear_501_4209)" stroke-width="0.269281"/>
<g opacity="0.5">
<circle opacity="0.2" cx="373.915" cy="259.909" r="114.065" transform="rotate(112 373.915 259.909)" stroke="url(#paint4_linear_501_4209)" stroke-width="1.09618"/>
<circle cx="373.915" cy="259.909" r="114.613" transform="rotate(112 373.915 259.909)" fill="url(#paint5_linear_501_4209)"/>
<path fill-rule="evenodd" clip-rule="evenodd" d="M259.286 261.713C259.045 246.826 261.719 231.647 267.647 216.974C270.611 209.638 274.249 202.776 278.459 196.43C307.138 153.207 362.412 133.943 412.683 152.05C412.857 152.113 413.031 152.176 413.205 152.24C414.226 152.613 415.245 153.002 416.261 153.406C416.457 153.484 416.654 153.563 416.85 153.642C475.54 177.354 503.895 244.154 480.182 302.844C470.26 327.402 452.794 346.649 431.534 358.992C401.986 376.147 365.112 379.967 330.98 366.177C286.962 348.393 260.008 306.372 259.286 261.713Z" fill="url(#paint6_linear_501_4209)"/>
<path d="M461.655 236.187C474.647 284.674 445.873 334.512 397.386 347.504C348.899 360.496 299.06 331.722 286.068 283.235C273.076 234.748 301.85 184.909 350.337 171.917C398.824 158.925 448.663 187.699 461.655 236.187Z" fill="#0E0E0E" stroke="url(#paint7_linear_501_4209)" stroke-width="0.269281"/>
</g>
<circle opacity="0.2" cx="114.613" cy="114.613" r="114.065" transform="matrix(-0.139173 0.990268 0.990268 0.139173 87.449 12.5468)" stroke="url(#paint8_linear_501_4209)" stroke-width="1.09618"/>
<circle cx="114.613" cy="114.613" r="114.613" transform="matrix(-0.139173 0.990268 0.990268 0.139173 87.449 12.5468)" fill="url(#paint9_linear_501_4209)"/>
<path fill-rule="evenodd" clip-rule="evenodd" d="M283.365 200.872C291.017 188.1 296.291 173.618 298.494 157.947C299.595 150.111 299.876 142.35 299.402 134.749C296.088 81.5426 255.795 36.2062 200.947 28.4979C200.457 28.4291 199.968 28.3634 199.479 28.301C137.361 20.3719 80.2385 63.8512 71.4978 126.045C67.4931 154.54 74.3339 182.058 88.8758 204.426C106.323 231.264 134.856 250.689 169.045 255.494C216.057 262.101 260.41 239.186 283.365 200.872Z" fill="url(#paint10_linear_501_4209)"/>
<path d="M120.872 77.5811C85.3767 113.076 85.3767 170.625 120.872 206.12C156.367 241.615 213.915 241.615 249.41 206.12C284.905 170.625 284.906 113.076 249.411 77.5811C213.916 42.0861 156.367 42.0861 120.872 77.5811Z" fill="#0E0E0E" stroke="url(#paint11_linear_501_4209)" stroke-width="0.269281"/>
<g opacity="0.5">
<circle opacity="0.2" cx="114.613" cy="114.613" r="114.065" transform="matrix(-0.139173 0.990268 0.990268 0.139173 87.449 12.5468)" stroke="url(#paint12_linear_501_4209)" stroke-width="1.09618"/>
<circle cx="114.613" cy="114.613" r="114.613" transform="matrix(-0.139173 0.990268 0.990268 0.139173 87.449 12.5468)" fill="url(#paint13_linear_501_4209)"/>
<path fill-rule="evenodd" clip-rule="evenodd" d="M283.365 200.872C291.017 188.1 296.291 173.618 298.494 157.947C299.595 150.111 299.876 142.35 299.402 134.749C296.088 81.5426 255.795 36.2062 200.947 28.4979C200.457 28.4291 199.968 28.3634 199.479 28.301C137.361 20.3719 80.2385 63.8512 71.4978 126.045C67.4931 154.54 74.3339 182.058 88.8758 204.426C106.323 231.264 134.856 250.689 169.045 255.494C216.057 262.101 260.41 239.186 283.365 200.872Z" fill="url(#paint14_linear_501_4209)"/>
<path d="M120.872 77.5811C85.3767 113.076 85.3767 170.625 120.872 206.12C156.367 241.615 213.915 241.615 249.41 206.12C284.905 170.625 284.906 113.076 249.411 77.5811C213.916 42.0861 156.367 42.0861 120.872 77.5811Z" fill="#0E0E0E" stroke="url(#paint15_linear_501_4209)" stroke-width="0.269281"/>
</g>
</g>
<defs>
<linearGradient id="paint0_linear_501_4209" x1="373.915" y1="145.296" x2="373.915" y2="374.523" gradientUnits="userSpaceOnUse">
<stop stop-color="white"/>
<stop offset="1" stop-color="white" stop-opacity="0"/>
</linearGradient>
<linearGradient id="paint1_linear_501_4209" x1="373.722" y1="111.229" x2="373.722" y2="374.511" gradientUnits="userSpaceOnUse">
<stop stop-color="#02C173" stop-opacity="0.3"/>
<stop offset="0.817708" stop-color="#02C173" stop-opacity="0"/>
</linearGradient>
<linearGradient id="paint2_linear_501_4209" x1="511.841" y1="315.428" x2="267.73" y2="216.8" gradientUnits="userSpaceOnUse">
<stop stop-color="#02C173" stop-opacity="0.3"/>
<stop offset="0.817708" stop-color="#02C173" stop-opacity="0"/>
</linearGradient>
<linearGradient id="paint3_linear_501_4209" x1="254.369" y1="165.452" x2="373.72" y2="229.817" gradientUnits="userSpaceOnUse">
<stop stop-color="white"/>
<stop offset="1" stop-color="white" stop-opacity="0"/>
</linearGradient>
<linearGradient id="paint4_linear_501_4209" x1="373.915" y1="145.296" x2="373.915" y2="374.523" gradientUnits="userSpaceOnUse">
<stop stop-color="white"/>
<stop offset="1" stop-color="white" stop-opacity="0"/>
</linearGradient>
<linearGradient id="paint5_linear_501_4209" x1="373.722" y1="111.229" x2="373.722" y2="374.511" gradientUnits="userSpaceOnUse">
<stop stop-color="#02C173" stop-opacity="0.3"/>
<stop offset="0.817708" stop-color="#02C173" stop-opacity="0"/>
</linearGradient>
<linearGradient id="paint6_linear_501_4209" x1="511.841" y1="315.428" x2="267.73" y2="216.8" gradientUnits="userSpaceOnUse">
<stop stop-color="#02C173" stop-opacity="0.3"/>
<stop offset="0.817708" stop-color="#02C173" stop-opacity="0"/>
</linearGradient>
<linearGradient id="paint7_linear_501_4209" x1="254.369" y1="165.452" x2="373.72" y2="229.817" gradientUnits="userSpaceOnUse">
<stop stop-color="white"/>
<stop offset="1" stop-color="white" stop-opacity="0"/>
</linearGradient>
<linearGradient id="paint8_linear_501_4209" x1="114.613" y1="0" x2="114.613" y2="229.227" gradientUnits="userSpaceOnUse">
<stop stop-color="white"/>
<stop offset="1" stop-color="white" stop-opacity="0"/>
</linearGradient>
<linearGradient id="paint9_linear_501_4209" x1="114.421" y1="-34.0673" x2="114.421" y2="229.215" gradientUnits="userSpaceOnUse">
<stop stop-color="#02C173" stop-opacity="0.3"/>
<stop offset="0.817708" stop-color="#02C173" stop-opacity="0"/>
</linearGradient>
<linearGradient id="paint10_linear_501_4209" x1="37.7888" y1="121.113" x2="298.509" y2="157.755" gradientUnits="userSpaceOnUse">
<stop stop-color="#02C173" stop-opacity="0.3"/>
<stop offset="0.817708" stop-color="#02C173" stop-opacity="0"/>
</linearGradient>
<linearGradient id="paint11_linear_501_4209" x1="335.754" y1="119.966" x2="200.21" y2="116.032" gradientUnits="userSpaceOnUse">
<stop stop-color="white"/>
<stop offset="1" stop-color="white" stop-opacity="0"/>
</linearGradient>
<linearGradient id="paint12_linear_501_4209" x1="114.613" y1="0" x2="114.613" y2="229.227" gradientUnits="userSpaceOnUse">
<stop stop-color="white"/>
<stop offset="1" stop-color="white" stop-opacity="0"/>
</linearGradient>
<linearGradient id="paint13_linear_501_4209" x1="114.421" y1="-34.0673" x2="114.421" y2="229.215" gradientUnits="userSpaceOnUse">
<stop stop-color="#02C173" stop-opacity="0.3"/>
<stop offset="0.817708" stop-color="#02C173" stop-opacity="0"/>
</linearGradient>
<linearGradient id="paint14_linear_501_4209" x1="37.7888" y1="121.113" x2="298.509" y2="157.755" gradientUnits="userSpaceOnUse">
<stop stop-color="#02C173" stop-opacity="0.3"/>
<stop offset="0.817708" stop-color="#02C173" stop-opacity="0"/>
</linearGradient>
<linearGradient id="paint15_linear_501_4209" x1="335.754" y1="119.966" x2="200.21" y2="116.032" gradientUnits="userSpaceOnUse">
<stop stop-color="white"/>
<stop offset="1" stop-color="white" stop-opacity="0"/>
</linearGradient>
<clipPath id="clip0_501_4209">
<rect width="570" height="405" fill="white"/>
</clipPath>
</defs>
</svg>
