<svg width="110" height="31" viewBox="0 0 110 31" fill="none" xmlns="http://www.w3.org/2000/svg">
<g clip-path="url(#clip0_501_3935)">
<circle opacity="0.2" cx="15.6099" cy="15.6098" r="14.6169" transform="rotate(-143 15.6099 15.6098)" stroke="url(#paint0_linear_501_3935)" stroke-width="0.199451"/>
<circle cx="15.6099" cy="15.6098" r="14.7166" transform="rotate(-143 15.6099 15.6098)" fill="url(#paint1_linear_501_3935)"/>
<path fill-rule="evenodd" clip-rule="evenodd" d="M24.4665 3.85658C17.9754 -1.03483 8.74805 0.26199 3.85664 6.75311C-1.03477 13.2442 0.262051 22.4716 6.75317 27.363C13.2443 32.2544 22.4716 30.9576 27.3631 24.4665C32.2545 17.9753 30.9576 8.74799 24.4665 3.85658Z" fill="url(#paint2_linear_501_3935)"/>
<path d="M15.6362 27.1981C9.23629 27.1981 4.0481 22.0099 4.0481 15.61C4.0481 9.21003 9.23629 4.02184 15.6362 4.02184C22.0362 4.02184 27.2244 9.21003 27.2244 15.61C27.2244 22.0099 22.0362 27.1981 15.6362 27.1981Z" fill="black" stroke="url(#paint3_linear_501_3935)" stroke-width="0.199451"/>
<circle opacity="0.2" cx="15.6099" cy="15.6098" r="14.6169" transform="rotate(-143 15.6099 15.6098)" stroke="url(#paint4_linear_501_3935)" stroke-width="0.199451"/>
<circle cx="15.6099" cy="15.6098" r="14.7166" transform="rotate(-143 15.6099 15.6098)" fill="url(#paint5_linear_501_3935)"/>
<path fill-rule="evenodd" clip-rule="evenodd" d="M24.4665 3.85658C17.9754 -1.03483 8.74805 0.26199 3.85664 6.75311C-1.03477 13.2442 0.262051 22.4716 6.75317 27.363C13.2443 32.2544 22.4716 30.9576 27.3631 24.4665C32.2545 17.9753 30.9576 8.74799 24.4665 3.85658Z" fill="url(#paint6_linear_501_3935)"/>
<path d="M15.6362 27.1981C9.23629 27.1981 4.0481 22.0099 4.0481 15.61C4.0481 9.21003 9.23629 4.02184 15.6362 4.02184C22.0362 4.02184 27.2244 9.21003 27.2244 15.61C27.2244 22.0099 22.0362 27.1981 15.6362 27.1981Z" fill="black" stroke="url(#paint7_linear_501_3935)" stroke-width="0.199451"/>
<circle opacity="0.2" cx="15.6099" cy="15.6098" r="14.6169" transform="rotate(-143 15.6099 15.6098)" stroke="url(#paint8_linear_501_3935)" stroke-width="0.199451"/>
<circle cx="15.6099" cy="15.6098" r="14.7166" transform="rotate(-143 15.6099 15.6098)" fill="url(#paint9_linear_501_3935)"/>
<path fill-rule="evenodd" clip-rule="evenodd" d="M24.4665 3.85658C17.9754 -1.03483 8.74805 0.26199 3.85664 6.75311C-1.03477 13.2442 0.262051 22.4716 6.75317 27.363C13.2443 32.2544 22.4716 30.9576 27.3631 24.4665C32.2545 17.9753 30.9576 8.74799 24.4665 3.85658Z" fill="url(#paint10_linear_501_3935)"/>
<path d="M15.6362 27.1981C9.23629 27.1981 4.0481 22.0099 4.0481 15.61C4.0481 9.21003 9.23629 4.02184 15.6362 4.02184C22.0362 4.02184 27.2244 9.21003 27.2244 15.61C27.2244 22.0099 22.0362 27.1981 15.6362 27.1981Z" fill="black" stroke="url(#paint11_linear_501_3935)" stroke-width="0.199451"/>
<path d="M38.8547 20.9545C37.9575 20.426 37.2561 19.6893 36.7504 18.7445C36.2447 17.7996 36 16.7106 36 15.4775C36 14.2444 36.2447 13.1554 36.7504 12.2105C37.2561 11.2657 37.9575 10.529 38.8547 10.0005C39.7519 9.47205 40.7796 9.21582 41.9378 9.21582C43.096 9.21582 44.1238 9.47205 45.021 10.0005C45.9182 10.529 46.6196 11.2657 47.1253 12.2105C47.631 13.1554 47.8757 14.2444 47.8757 15.4775C47.8757 16.7106 47.631 17.7996 47.1253 18.7445C46.6196 19.6893 45.9182 20.426 45.021 20.9545C44.1238 21.4829 43.096 21.7392 41.9378 21.7392C40.7796 21.7392 39.7519 21.4829 38.8547 20.9545ZM44.1074 19.7534C44.7436 19.337 45.233 18.7605 45.5919 18.0238C45.9508 17.2871 46.1302 16.4384 46.1302 15.4935C46.1302 14.5487 45.9508 13.6999 45.5919 12.9632C45.233 12.2265 44.7436 11.65 44.1074 11.2336C43.4712 10.8173 42.7372 10.6091 41.9052 10.6091C41.0733 10.6091 40.3392 10.8173 39.703 11.2336C39.0668 11.65 38.5774 12.2265 38.2185 12.9632C37.8597 13.6999 37.6802 14.5487 37.6802 15.4935C37.6802 16.4384 37.8597 17.2871 38.2185 18.0238C38.5774 18.7605 39.0668 19.337 39.703 19.7534C40.3392 20.1697 41.0733 20.3779 41.9052 20.3779C42.7372 20.3779 43.4712 20.1697 44.1074 19.7534Z" fill="white"/>
<path d="M59.7223 21.563L57.8137 21.595L54.8285 16.6305H54.7796H51.8596V21.595H50.212V9.42401H54.7796C55.6768 9.42401 56.4598 9.56814 57.1286 9.8564C57.7974 10.1447 58.3194 10.561 58.6783 11.1055C59.0372 11.65 59.2166 12.2906 59.2166 13.0113C59.2166 13.844 58.9882 14.5487 58.5152 15.1252C58.0421 15.7017 57.3896 16.1181 56.5576 16.3583L59.7223 21.563ZM51.8596 10.8653V15.1572H54.8122C55.6604 15.1572 56.3293 14.965 56.8023 14.5967C57.2754 14.2284 57.5201 13.6999 57.5201 13.0113C57.5201 12.3226 57.2754 11.7942 56.8023 11.4258C56.3293 11.0575 55.6604 10.8653 54.8122 10.8653H51.8596Z" fill="white"/>
<path d="M63.4406 16.006V20.1217H70.0147V21.563H61.793V9.39198H69.8678V10.8333H63.4406V14.5647H69.7536V16.006H63.4406Z" fill="white"/>
<path d="M74.4433 20.9545C73.5461 20.426 72.8447 19.6893 72.339 18.7445C71.8333 17.7996 71.5886 16.7106 71.5886 15.4775C71.5886 14.2444 71.8333 13.1554 72.339 12.2105C72.8447 11.2657 73.5461 10.529 74.4433 10.0005C75.3405 9.47205 76.3682 9.21582 77.5264 9.21582C78.6846 9.21582 79.7123 9.47205 80.6095 10.0005C81.5067 10.529 82.2082 11.2657 82.7139 12.2105C83.2196 13.1554 83.4643 14.2444 83.4643 15.4775C83.4643 16.7106 83.2196 17.7996 82.7139 18.7445C82.2082 19.6893 81.5067 20.426 80.6095 20.9545C79.7123 21.4829 78.6846 21.7392 77.5264 21.7392C76.3682 21.7392 75.3405 21.4829 74.4433 20.9545ZM79.696 19.7534C80.3322 19.337 80.8216 18.7605 81.1805 18.0238C81.5394 17.2871 81.7188 16.4384 81.7188 15.4935C81.7188 14.5487 81.5394 13.6999 81.1805 12.9632C80.8216 12.2265 80.3322 11.65 79.696 11.2336C79.0598 10.8173 78.3257 10.6091 77.4938 10.6091C76.6618 10.6091 75.9278 10.8173 75.2916 11.2336C74.6554 11.65 74.166 12.2265 73.8071 12.9632C73.4482 13.6999 73.2688 14.5487 73.2688 15.4935C73.2688 16.4384 73.4482 17.2871 73.8071 18.0238C74.166 18.7605 74.6554 19.337 75.2916 19.7534C75.9278 20.1697 76.6618 20.3779 77.4938 20.3779C78.3257 20.3779 79.0598 20.1697 79.696 19.7534Z" fill="white"/>
<path d="M96.3758 21.563H94.614L93.2764 17.8797H87.1917L85.8541 21.563H84.0923L88.5457 9.39198H91.9224L96.3758 21.563ZM90.2422 9.45604L87.7137 16.4384H92.7544L90.2422 9.45604Z" fill="white"/>
<path d="M99.6186 21.563H97.971V9.39198H99.6186V21.563Z" fill="white"/>
<path d="M104.515 9.21582H106.542V9.51638H105.697V11.7539H105.36V9.51638H104.515V9.21582Z" fill="white"/>
<path d="M109.797 9.21582V11.7539H109.459V9.22584L108.708 11.7539H108.007L107.255 9.22584V11.7539H106.918V9.21582H107.606L108.357 11.7439L109.109 9.21582H109.797Z" fill="white"/>
</g>
<defs>
<linearGradient id="paint0_linear_501_3935" x1="15.6099" y1="0.893229" x2="15.6099" y2="30.3265" gradientUnits="userSpaceOnUse">
<stop stop-color="white"/>
<stop offset="1" stop-color="white" stop-opacity="0"/>
</linearGradient>
<linearGradient id="paint1_linear_501_3935" x1="15.5852" y1="-3.48109" x2="15.5852" y2="30.325" gradientUnits="userSpaceOnUse">
<stop stop-color="#02C173" stop-opacity="0.3"/>
<stop offset="0.817708" stop-color="#02C173" stop-opacity="0"/>
</linearGradient>
<linearGradient id="paint2_linear_501_3935" x1="4.14038" y1="30.8714" x2="24.4854" y2="3.87262" gradientUnits="userSpaceOnUse">
<stop stop-color="#02C173" stop-opacity="0.3"/>
<stop offset="0.817708" stop-color="#02C173" stop-opacity="0"/>
</linearGradient>
<linearGradient id="paint3_linear_501_3935" x1="31.298" y1="3.92212" x2="19.3486" y2="16.5859" gradientUnits="userSpaceOnUse">
<stop stop-color="white"/>
<stop offset="1" stop-color="white" stop-opacity="0"/>
</linearGradient>
<linearGradient id="paint4_linear_501_3935" x1="15.6099" y1="0.893229" x2="15.6099" y2="30.3265" gradientUnits="userSpaceOnUse">
<stop stop-color="white"/>
<stop offset="1" stop-color="white" stop-opacity="0"/>
</linearGradient>
<linearGradient id="paint5_linear_501_3935" x1="15.5852" y1="-3.48109" x2="15.5852" y2="30.325" gradientUnits="userSpaceOnUse">
<stop stop-color="#02C173" stop-opacity="0.3"/>
<stop offset="0.817708" stop-color="#02C173" stop-opacity="0"/>
</linearGradient>
<linearGradient id="paint6_linear_501_3935" x1="4.14038" y1="30.8714" x2="24.4854" y2="3.87262" gradientUnits="userSpaceOnUse">
<stop stop-color="#02C173" stop-opacity="0.3"/>
<stop offset="0.817708" stop-color="#02C173" stop-opacity="0"/>
</linearGradient>
<linearGradient id="paint7_linear_501_3935" x1="31.298" y1="3.92212" x2="19.3486" y2="16.5859" gradientUnits="userSpaceOnUse">
<stop stop-color="white"/>
<stop offset="1" stop-color="white" stop-opacity="0"/>
</linearGradient>
<linearGradient id="paint8_linear_501_3935" x1="15.6099" y1="0.893229" x2="15.6099" y2="30.3265" gradientUnits="userSpaceOnUse">
<stop stop-color="white"/>
<stop offset="1" stop-color="white" stop-opacity="0"/>
</linearGradient>
<linearGradient id="paint9_linear_501_3935" x1="15.5852" y1="-3.48109" x2="15.5852" y2="30.325" gradientUnits="userSpaceOnUse">
<stop stop-color="#02C173" stop-opacity="0.3"/>
<stop offset="0.817708" stop-color="#02C173" stop-opacity="0"/>
</linearGradient>
<linearGradient id="paint10_linear_501_3935" x1="4.14038" y1="30.8714" x2="24.4854" y2="3.87262" gradientUnits="userSpaceOnUse">
<stop stop-color="#02C173" stop-opacity="0.3"/>
<stop offset="0.817708" stop-color="#02C173" stop-opacity="0"/>
</linearGradient>
<linearGradient id="paint11_linear_501_3935" x1="31.298" y1="3.92212" x2="19.3486" y2="16.5859" gradientUnits="userSpaceOnUse">
<stop stop-color="white"/>
<stop offset="1" stop-color="white" stop-opacity="0"/>
</linearGradient>
<clipPath id="clip0_501_3935">
<rect width="110" height="31" fill="white"/>
</clipPath>
</defs>
</svg>
