<svg width="144" height="24" viewBox="0 0 144 24" fill="none" xmlns="http://www.w3.org/2000/svg">
<g clip-path="url(#clip0_54_137)">
<path fill-rule="evenodd" clip-rule="evenodd" d="M38.4968 0L26.198 24H14.6697L19.7967 14.0444H19.5596C15.3513 19.5556 9.00926 23.1704 0 24V14.1926C0 14.1926 5.77897 13.8667 9.15744 10.2815H0V0H10.2836V8.47408H10.5207L14.729 0H22.5232V8.41482H22.7602L27.0871 0H38.4968Z" fill="white"/>
<path d="M105.444 21.3629H108.763V2.3407H105.444V21.3629Z" fill="white"/>
<path fill-rule="evenodd" clip-rule="evenodd" d="M87.1883 21.1555C87.8996 21.4518 88.6405 21.6 89.3814 21.6C90.6261 21.6 91.7226 21.3037 92.6709 20.7111C93.6489 20.1185 94.3898 19.2888 94.9233 18.2222C95.4567 17.1555 95.7234 15.9703 95.7234 14.6074C95.7234 13.2444 95.4567 12.0592 94.8936 10.9926C94.3305 9.92588 93.5896 9.12588 92.6117 8.53329C91.6337 7.9407 90.5075 7.6444 89.2628 7.67403C88.4627 7.67403 87.7218 7.82218 86.9809 8.14811C86.24 8.4444 85.6473 8.88885 85.1731 9.45181C85.1435 9.48144 85.1138 9.5407 85.0546 9.57033V2.3407H81.7354V21.3333H85.0249V19.5555C85.1138 19.674 85.2027 19.7629 85.2916 19.8518C85.8251 20.4148 86.4474 20.8592 87.1883 21.1555ZM90.5668 18.074C90.0334 18.4 89.411 18.5777 88.6997 18.5777C88.0181 18.5777 87.3661 18.4 86.8031 18.074C86.24 17.7185 85.7658 17.2444 85.4398 16.6518C85.1138 16.0592 84.936 15.3777 84.936 14.6074C84.936 13.837 85.0842 13.1555 85.4102 12.5629C85.7362 11.9703 86.2103 11.4963 86.7734 11.1407C87.3365 10.8148 87.9885 10.637 88.6701 10.637C89.3517 10.637 89.9741 10.7851 90.5372 11.1111C91.1002 11.437 91.5151 11.9111 91.8115 12.5037C92.1079 13.0963 92.256 13.7777 92.256 14.5777C92.256 15.3481 92.1079 16.0296 91.8115 16.6518C91.5448 17.274 91.1299 17.7481 90.5668 18.074Z" fill="white"/>
<path d="M43.2979 3.49634H47.0912L50.4697 15.8519L54.0853 3.49634H57.2266L61.1386 15.6149L64.3985 3.49634H67.8659L62.7389 21.363H59.479L55.5078 9.51115L51.8626 21.363H48.573L43.2979 3.49634Z" fill="white"/>
<path fill-rule="evenodd" clip-rule="evenodd" d="M73.4372 21.6592C72.1036 21.6592 70.9182 21.3629 69.8809 20.7999C68.814 20.2073 68.0139 19.3777 67.3915 18.3111C66.7988 17.2444 66.5024 16.0296 66.5024 14.6962C66.5024 13.3629 66.7988 12.1777 67.4212 11.1111C68.0435 10.0444 68.8733 9.21476 69.9106 8.62217C70.9774 8.02957 72.1332 7.73328 73.4372 7.73328C74.8894 7.73328 76.1637 8.0592 77.2602 8.71105C78.3567 9.36291 79.1865 10.2814 79.72 11.4666C80.2831 12.6518 80.4609 14.0148 80.3127 15.5259H69.9106C69.9402 16.1481 70.0884 16.6814 70.3551 17.1851C70.6514 17.7481 71.096 18.1629 71.6294 18.4592C72.1925 18.7555 72.7852 18.9333 73.4668 18.9333C73.9706 18.9333 74.4745 18.8444 74.919 18.6666C75.3635 18.4888 75.7488 18.2518 76.0451 17.9555C76.3711 17.6592 76.5786 17.3036 76.7268 16.9481H80.1942C79.9867 17.8666 79.5718 18.6962 78.9198 19.437C78.2975 20.1481 77.4973 20.7111 76.549 21.1259C75.6302 21.4814 74.593 21.6888 73.4372 21.6592ZM70.3847 12.1481C70.1773 12.474 70.0587 12.8592 69.9698 13.2444H76.8749C76.8157 12.7407 76.6675 12.2962 76.4304 11.9111C76.1341 11.437 75.7488 11.0518 75.245 10.8148C74.7412 10.5481 74.1781 10.3999 73.5557 10.3999C72.8741 10.3999 72.2814 10.5481 71.7183 10.874C71.1553 11.1703 70.7107 11.5851 70.3847 12.1481Z" fill="white"/>
<path d="M98.1831 7.97036C98.1831 6.87407 98.4202 5.92592 98.924 5.09629C99.4278 4.23703 100.109 3.58518 100.998 3.1111C101.888 2.63703 102.954 2.39999 104.14 2.37036V5.33332C103.577 5.33332 103.103 5.45184 102.717 5.68888C102.332 5.89629 102.036 6.22221 101.828 6.63703C101.621 7.02221 101.532 7.46666 101.502 7.97036H104.081V10.7852H101.502V21.363H98.1831V10.7852H96.0493V7.97036H98.1831Z" fill="white"/>
<path fill-rule="evenodd" clip-rule="evenodd" d="M117.18 21.6296C115.816 21.6296 114.631 21.3333 113.564 20.7407C112.497 20.1481 111.667 19.3185 111.075 18.2518C110.482 17.1851 110.186 16 110.186 14.637C110.186 13.274 110.482 12.0889 111.075 11.0222C111.667 9.95552 112.527 9.12589 113.564 8.5333C114.631 7.94071 115.846 7.64441 117.18 7.64441C118.543 7.64441 119.758 7.94071 120.825 8.5333C121.892 9.12589 122.751 9.95552 123.344 11.0222C123.937 12.0889 124.233 13.3037 124.263 14.637C124.263 15.9703 123.937 17.1851 123.344 18.2518C122.751 19.3185 121.921 20.1185 120.854 20.7407C119.758 21.3333 118.543 21.6296 117.18 21.6296ZM117.18 18.6074C117.891 18.6074 118.513 18.4592 119.076 18.1333C119.639 17.8074 120.054 17.3333 120.351 16.7407C120.647 16.1481 120.795 15.4666 120.795 14.6963C120.795 13.9259 120.647 13.2444 120.351 12.6222C120.054 12.0296 119.639 11.5555 119.076 11.2296C118.513 10.9037 117.891 10.7259 117.18 10.7259C116.468 10.7259 115.846 10.9037 115.313 11.2296C114.779 11.5555 114.364 12 114.038 12.6222C113.742 13.2148 113.594 13.8963 113.594 14.6963C113.594 15.4666 113.742 16.1481 114.038 16.7407C114.335 17.3333 114.779 17.8074 115.313 18.1333C115.846 18.4296 116.468 18.6074 117.18 18.6074Z" fill="white"/>
<path d="M127.819 7.97034H124.114L128.115 21.3333H131.345L133.983 12.8L136.828 21.3333H139.999L144 7.97034H140.651L138.399 16.2963L135.88 7.97034H132.649L130.16 16.474L127.819 7.97034Z" fill="white"/>
</g>
<defs>
<clipPath id="clip0_54_137">
<rect width="144" height="24" fill="white"/>
</clipPath>
</defs>
</svg>
